<?xml version="1.0" encoding="UTF-8" standalone="no"?>
<svg width="81px" height="21px" viewBox="0 0 81 21" version="1.1" xmlns="http://www.w3.org/2000/svg" xmlns:xlink="http://www.w3.org/1999/xlink" xmlns:sketch="http://www.bohemiancoding.com/sketch/ns">
    <!-- Generator: Sketch 3.3 (11970) - http://www.bohemiancoding.com/sketch -->
    <title>Mendo</title>
    <desc>Created with Sketch.</desc>
    <defs></defs>
    <g id="Home" stroke="none" stroke-width="1" fill="none" fill-rule="evenodd" sketch:type="MSPage">
        <g id="Work" sketch:type="MSArtboardGroup" transform="translate(-222.000000, -109.000000)" fill="#3A3942">
            <g id="Header" sketch:type="MSLayerGroup" transform="translate(50.000000, 69.000000)">
                <path d="M172.171077,41.7009231 L175.867077,41.7009231 L181.682462,55.5544615 L181.785846,55.5544615 L187.549538,41.7009231 L191.245538,41.7009231 L191.245538,60 L188.764308,60 L188.764308,44.9575385 L188.712615,44.9575385 L182.535385,60 L180.881231,60 L174.704,44.9575385 L174.652308,44.9575385 L174.652308,60 L172.171077,60 L172.171077,41.7009231 Z M196.931692,54.7273846 C196.931692,55.2615411 197.047999,55.7483055 197.280615,56.1876923 C197.513232,56.6270791 197.819075,57.0018446 198.198154,57.312 C198.577233,57.6221554 199.016613,57.8633838 199.516308,58.0356923 C200.016002,58.2080009 200.53292,58.2941538 201.067077,58.2941538 C201.790773,58.2941538 202.41969,58.1261555 202.953846,57.7901538 C203.488003,57.4541522 203.979075,57.0104643 204.427077,56.4590769 L206.184615,57.8030769 C204.892301,59.4744699 203.083089,60.3101538 200.756923,60.3101538 C199.791995,60.3101538 198.917542,60.1464632 198.133538,59.8190769 C197.349535,59.4916907 196.686157,59.0393875 196.143385,58.4621538 C195.600613,57.8849202 195.182771,57.2043116 194.889846,56.4203077 C194.596922,55.6363038 194.450462,54.7876969 194.450462,53.8744615 C194.450462,52.9612262 194.609845,52.1126193 194.928615,51.3286154 C195.247386,50.5446115 195.686766,49.8640029 196.246769,49.2867692 C196.806772,48.7095356 197.474458,48.2572324 198.249846,47.9298462 C199.025235,47.6024599 199.869534,47.4387692 200.782769,47.4387692 C201.868313,47.4387692 202.785842,47.6283058 203.535385,48.0073846 C204.284927,48.3864634 204.900921,48.8818431 205.383385,49.4935385 C205.865849,50.1052338 206.214768,50.7944577 206.430154,51.5612308 C206.64554,52.3280038 206.753231,53.1076883 206.753231,53.9003077 L206.753231,54.7273846 L196.931692,54.7273846 Z M204.272,52.8664615 C204.254769,52.3495359 204.172924,51.8756945 204.026462,51.4449231 C203.879999,51.0141517 203.660309,50.6393862 203.367385,50.3206154 C203.07446,50.0018446 202.70831,49.7520009 202.268923,49.5710769 C201.829536,49.3901529 201.316926,49.2996923 200.731077,49.2996923 C200.162459,49.2996923 199.641233,49.4073835 199.167385,49.6227692 C198.693536,49.8381549 198.292925,50.1181521 197.965538,50.4627692 C197.638152,50.8073863 197.384001,51.1907671 197.203077,51.6129231 C197.022153,52.035079 196.931692,52.452921 196.931692,52.8664615 L204.272,52.8664615 Z M209.544615,47.7489231 L211.870769,47.7489231 L211.870769,49.6356923 L211.922462,49.6356923 C212.215386,48.9809198 212.723689,48.4510789 213.447385,48.0461538 C214.171081,47.6412287 215.006764,47.4387692 215.954462,47.4387692 C216.540311,47.4387692 217.104613,47.5292299 217.647385,47.7101538 C218.190157,47.8910778 218.663998,48.171075 219.068923,48.5501538 C219.473848,48.9292327 219.796922,49.415997 220.038154,50.0104615 C220.279386,50.604926 220.4,51.3070729 220.4,52.1169231 L220.4,60 L218.073846,60 L218.073846,52.7630769 C218.073846,52.1944587 217.996308,51.7076943 217.841231,51.3027692 C217.686153,50.8978441 217.479386,50.5704628 217.220923,50.3206154 C216.96246,50.070768 216.665232,49.8898467 216.329231,49.7778462 C215.993229,49.6658456 215.64431,49.6098462 215.282462,49.6098462 C214.799998,49.6098462 214.352002,49.6873838 213.938462,49.8424615 C213.524921,49.9975392 213.163078,50.2430752 212.852923,50.5790769 C212.542768,50.9150786 212.301539,51.3415359 212.129231,51.8584615 C211.956922,52.3753872 211.870769,52.9870734 211.870769,53.6935385 L211.870769,60 L209.544615,60 L209.544615,47.7489231 Z M236.192,60 L233.865846,60 L233.865846,58.2424615 L233.814154,58.2424615 C233.366152,58.897234 232.750158,59.4055367 231.966154,59.7673846 C231.18215,60.1292326 230.37662,60.3101538 229.549538,60.3101538 C228.601841,60.3101538 227.744619,60.1464632 226.977846,59.8190769 C226.211073,59.4916907 225.55631,59.0350799 225.013538,58.4492308 C224.470767,57.8633817 224.052925,57.1827731 223.76,56.4073846 C223.467075,55.6319961 223.320615,54.7876969 223.320615,53.8744615 C223.320615,52.9612262 223.467075,52.1126193 223.76,51.3286154 C224.052925,50.5446115 224.470767,49.8640029 225.013538,49.2867692 C225.55631,48.7095356 226.211073,48.2572324 226.977846,47.9298462 C227.744619,47.6024599 228.601841,47.4387692 229.549538,47.4387692 C230.428312,47.4387692 231.255381,47.6239981 232.030769,47.9944615 C232.806158,48.3649249 233.400613,48.8689199 233.814154,49.5064615 L233.865846,49.5064615 L233.865846,40.4603077 L236.192,40.4603077 L236.192,60 Z M229.833846,58.1390769 C230.454157,58.1390769 231.014151,58.0313857 231.513846,57.816 C232.013541,57.6006143 232.435691,57.3076942 232.780308,56.9372308 C233.124925,56.5667674 233.391999,56.1187719 233.581538,55.5932308 C233.771078,55.0676897 233.865846,54.4947723 233.865846,53.8744615 C233.865846,53.2541507 233.771078,52.6812334 233.581538,52.1556923 C233.391999,51.6301512 233.124925,51.1821557 232.780308,50.8116923 C232.435691,50.4412289 232.013541,50.1483088 231.513846,49.9329231 C231.014151,49.7175374 230.454157,49.6098462 229.833846,49.6098462 C229.213535,49.6098462 228.653541,49.7175374 228.153846,49.9329231 C227.654151,50.1483088 227.232002,50.4412289 226.887385,50.8116923 C226.542768,51.1821557 226.275693,51.6301512 226.086154,52.1556923 C225.896614,52.6812334 225.801846,53.2541507 225.801846,53.8744615 C225.801846,54.4947723 225.896614,55.0676897 226.086154,55.5932308 C226.275693,56.1187719 226.542768,56.5667674 226.887385,56.9372308 C227.232002,57.3076942 227.654151,57.6006143 228.153846,57.816 C228.653541,58.0313857 229.213535,58.1390769 229.833846,58.1390769 L229.833846,58.1390769 Z M241.593846,53.8744615 C241.593846,54.4947723 241.688614,55.0676897 241.878154,55.5932308 C242.067693,56.1187719 242.334768,56.5667674 242.679385,56.9372308 C243.024002,57.3076942 243.446151,57.6006143 243.945846,57.816 C244.445541,58.0313857 245.005535,58.1390769 245.625846,58.1390769 C246.246157,58.1390769 246.806151,58.0313857 247.305846,57.816 C247.805541,57.6006143 248.227691,57.3076942 248.572308,56.9372308 C248.916925,56.5667674 249.183999,56.1187719 249.373538,55.5932308 C249.563078,55.0676897 249.657846,54.4947723 249.657846,53.8744615 C249.657846,53.2541507 249.563078,52.6812334 249.373538,52.1556923 C249.183999,51.6301512 248.916925,51.1821557 248.572308,50.8116923 C248.227691,50.4412289 247.805541,50.1483088 247.305846,49.9329231 C246.806151,49.7175374 246.246157,49.6098462 245.625846,49.6098462 C245.005535,49.6098462 244.445541,49.7175374 243.945846,49.9329231 C243.446151,50.1483088 243.024002,50.4412289 242.679385,50.8116923 C242.334768,51.1821557 242.067693,51.6301512 241.878154,52.1556923 C241.688614,52.6812334 241.593846,53.2541507 241.593846,53.8744615 L241.593846,53.8744615 Z M239.112615,53.8744615 C239.112615,52.9784571 239.280614,52.1427731 239.616615,51.3673846 C239.952617,50.5919961 240.413536,49.9113875 240.999385,49.3255385 C241.585234,48.7396894 242.274458,48.2787709 243.067077,47.9427692 C243.859696,47.6067676 244.712611,47.4387692 245.625846,47.4387692 C246.539081,47.4387692 247.391996,47.6067676 248.184615,47.9427692 C248.977235,48.2787709 249.666459,48.7396894 250.252308,49.3255385 C250.838157,49.9113875 251.299075,50.5919961 251.635077,51.3673846 C251.971079,52.1427731 252.139077,52.9784571 252.139077,53.8744615 C252.139077,54.770466 251.971079,55.6104576 251.635077,56.3944615 C251.299075,57.1784655 250.838157,57.859074 250.252308,58.4363077 C249.666459,59.0135413 248.977235,59.4701522 248.184615,59.8061538 C247.391996,60.1421555 246.539081,60.3101538 245.625846,60.3101538 C244.712611,60.3101538 243.859696,60.1421555 243.067077,59.8061538 C242.274458,59.4701522 241.585234,59.0135413 240.999385,58.4363077 C240.413536,57.859074 239.952617,57.1784655 239.616615,56.3944615 C239.280614,55.6104576 239.112615,54.770466 239.112615,53.8744615 L239.112615,53.8744615 Z" id="Mendo" sketch:type="MSShapeGroup"></path>
            </g>
        </g>
    </g>
</svg>