<?xml version="1.0" encoding="UTF-8" standalone="no"?>
<svg width="81px" height="21px" viewBox="0 0 81 21" version="1.1" xmlns="http://www.w3.org/2000/svg" xmlns:xlink="http://www.w3.org/1999/xlink" xmlns:sketch="http://www.bohemiancoding.com/sketch/ns">
    <!-- Generator: Sketch 3.3 (11970) - http://www.bohemiancoding.com/sketch -->
    <title>Mendo</title>
    <desc>Created with Sketch.</desc>
    <defs></defs>
    <g id="Home" stroke="none" stroke-width="1" fill="none" fill-rule="evenodd" sketch:type="MSPage">
        <g id="Work" sketch:type="MSArtboardGroup" transform="translate(-680.000000, -7205.000000)" fill="#D3D3D6">
            <g id="Footer" sketch:type="MSLayerGroup" transform="translate(50.000000, 7139.000000)">
                <path d="M630.171077,67.7009231 L633.867077,67.7009231 L639.682462,81.5544615 L639.785846,81.5544615 L645.549538,67.7009231 L649.245538,67.7009231 L649.245538,86 L646.764308,86 L646.764308,70.9575385 L646.712615,70.9575385 L640.535385,86 L638.881231,86 L632.704,70.9575385 L632.652308,70.9575385 L632.652308,86 L630.171077,86 L630.171077,67.7009231 Z M654.931692,80.7273846 C654.931692,81.2615411 655.047999,81.7483055 655.280615,82.1876923 C655.513232,82.6270791 655.819075,83.0018446 656.198154,83.312 C656.577233,83.6221554 657.016613,83.8633838 657.516308,84.0356923 C658.016002,84.2080009 658.53292,84.2941538 659.067077,84.2941538 C659.790773,84.2941538 660.41969,84.1261555 660.953846,83.7901538 C661.488003,83.4541522 661.979075,83.0104643 662.427077,82.4590769 L664.184615,83.8030769 C662.892301,85.4744699 661.083089,86.3101538 658.756923,86.3101538 C657.791995,86.3101538 656.917542,86.1464632 656.133538,85.8190769 C655.349535,85.4916907 654.686157,85.0393875 654.143385,84.4621538 C653.600613,83.8849202 653.182771,83.2043116 652.889846,82.4203077 C652.596922,81.6363038 652.450462,80.7876969 652.450462,79.8744615 C652.450462,78.9612262 652.609845,78.1126193 652.928615,77.3286154 C653.247386,76.5446115 653.686766,75.8640029 654.246769,75.2867692 C654.806772,74.7095356 655.474458,74.2572324 656.249846,73.9298462 C657.025235,73.6024599 657.869534,73.4387692 658.782769,73.4387692 C659.868313,73.4387692 660.785842,73.6283058 661.535385,74.0073846 C662.284927,74.3864634 662.900921,74.8818431 663.383385,75.4935385 C663.865849,76.1052338 664.214768,76.7944577 664.430154,77.5612308 C664.64554,78.3280038 664.753231,79.1076883 664.753231,79.9003077 L664.753231,80.7273846 L654.931692,80.7273846 Z M662.272,78.8664615 C662.254769,78.3495359 662.172924,77.8756945 662.026462,77.4449231 C661.879999,77.0141517 661.660309,76.6393862 661.367385,76.3206154 C661.07446,76.0018446 660.70831,75.7520009 660.268923,75.5710769 C659.829536,75.3901529 659.316926,75.2996923 658.731077,75.2996923 C658.162459,75.2996923 657.641233,75.4073835 657.167385,75.6227692 C656.693536,75.8381549 656.292925,76.1181521 655.965538,76.4627692 C655.638152,76.8073863 655.384001,77.1907671 655.203077,77.6129231 C655.022153,78.035079 654.931692,78.452921 654.931692,78.8664615 L662.272,78.8664615 Z M667.544615,73.7489231 L669.870769,73.7489231 L669.870769,75.6356923 L669.922462,75.6356923 C670.215386,74.9809198 670.723689,74.4510789 671.447385,74.0461538 C672.171081,73.6412287 673.006764,73.4387692 673.954462,73.4387692 C674.540311,73.4387692 675.104613,73.5292299 675.647385,73.7101538 C676.190157,73.8910778 676.663998,74.171075 677.068923,74.5501538 C677.473848,74.9292327 677.796922,75.415997 678.038154,76.0104615 C678.279386,76.604926 678.4,77.3070729 678.4,78.1169231 L678.4,86 L676.073846,86 L676.073846,78.7630769 C676.073846,78.1944587 675.996308,77.7076943 675.841231,77.3027692 C675.686153,76.8978441 675.479386,76.5704628 675.220923,76.3206154 C674.96246,76.070768 674.665232,75.8898467 674.329231,75.7778462 C673.993229,75.6658456 673.64431,75.6098462 673.282462,75.6098462 C672.799998,75.6098462 672.352002,75.6873838 671.938462,75.8424615 C671.524921,75.9975392 671.163078,76.2430752 670.852923,76.5790769 C670.542768,76.9150786 670.301539,77.3415359 670.129231,77.8584615 C669.956922,78.3753872 669.870769,78.9870734 669.870769,79.6935385 L669.870769,86 L667.544615,86 L667.544615,73.7489231 Z M694.192,86 L691.865846,86 L691.865846,84.2424615 L691.814154,84.2424615 C691.366152,84.897234 690.750158,85.4055367 689.966154,85.7673846 C689.18215,86.1292326 688.37662,86.3101538 687.549538,86.3101538 C686.601841,86.3101538 685.744619,86.1464632 684.977846,85.8190769 C684.211073,85.4916907 683.55631,85.0350799 683.013538,84.4492308 C682.470767,83.8633817 682.052925,83.1827731 681.76,82.4073846 C681.467075,81.6319961 681.320615,80.7876969 681.320615,79.8744615 C681.320615,78.9612262 681.467075,78.1126193 681.76,77.3286154 C682.052925,76.5446115 682.470767,75.8640029 683.013538,75.2867692 C683.55631,74.7095356 684.211073,74.2572324 684.977846,73.9298462 C685.744619,73.6024599 686.601841,73.4387692 687.549538,73.4387692 C688.428312,73.4387692 689.255381,73.6239981 690.030769,73.9944615 C690.806158,74.3649249 691.400613,74.8689199 691.814154,75.5064615 L691.865846,75.5064615 L691.865846,66.4603077 L694.192,66.4603077 L694.192,86 Z M687.833846,84.1390769 C688.454157,84.1390769 689.014151,84.0313857 689.513846,83.816 C690.013541,83.6006143 690.435691,83.3076942 690.780308,82.9372308 C691.124925,82.5667674 691.391999,82.1187719 691.581538,81.5932308 C691.771078,81.0676897 691.865846,80.4947723 691.865846,79.8744615 C691.865846,79.2541507 691.771078,78.6812334 691.581538,78.1556923 C691.391999,77.6301512 691.124925,77.1821557 690.780308,76.8116923 C690.435691,76.4412289 690.013541,76.1483088 689.513846,75.9329231 C689.014151,75.7175374 688.454157,75.6098462 687.833846,75.6098462 C687.213535,75.6098462 686.653541,75.7175374 686.153846,75.9329231 C685.654151,76.1483088 685.232002,76.4412289 684.887385,76.8116923 C684.542768,77.1821557 684.275693,77.6301512 684.086154,78.1556923 C683.896614,78.6812334 683.801846,79.2541507 683.801846,79.8744615 C683.801846,80.4947723 683.896614,81.0676897 684.086154,81.5932308 C684.275693,82.1187719 684.542768,82.5667674 684.887385,82.9372308 C685.232002,83.3076942 685.654151,83.6006143 686.153846,83.816 C686.653541,84.0313857 687.213535,84.1390769 687.833846,84.1390769 L687.833846,84.1390769 Z M699.593846,79.8744615 C699.593846,80.4947723 699.688614,81.0676897 699.878154,81.5932308 C700.067693,82.1187719 700.334768,82.5667674 700.679385,82.9372308 C701.024002,83.3076942 701.446151,83.6006143 701.945846,83.816 C702.445541,84.0313857 703.005535,84.1390769 703.625846,84.1390769 C704.246157,84.1390769 704.806151,84.0313857 705.305846,83.816 C705.805541,83.6006143 706.227691,83.3076942 706.572308,82.9372308 C706.916925,82.5667674 707.183999,82.1187719 707.373538,81.5932308 C707.563078,81.0676897 707.657846,80.4947723 707.657846,79.8744615 C707.657846,79.2541507 707.563078,78.6812334 707.373538,78.1556923 C707.183999,77.6301512 706.916925,77.1821557 706.572308,76.8116923 C706.227691,76.4412289 705.805541,76.1483088 705.305846,75.9329231 C704.806151,75.7175374 704.246157,75.6098462 703.625846,75.6098462 C703.005535,75.6098462 702.445541,75.7175374 701.945846,75.9329231 C701.446151,76.1483088 701.024002,76.4412289 700.679385,76.8116923 C700.334768,77.1821557 700.067693,77.6301512 699.878154,78.1556923 C699.688614,78.6812334 699.593846,79.2541507 699.593846,79.8744615 L699.593846,79.8744615 Z M697.112615,79.8744615 C697.112615,78.9784571 697.280614,78.1427731 697.616615,77.3673846 C697.952617,76.5919961 698.413536,75.9113875 698.999385,75.3255385 C699.585234,74.7396894 700.274458,74.2787709 701.067077,73.9427692 C701.859696,73.6067676 702.712611,73.4387692 703.625846,73.4387692 C704.539081,73.4387692 705.391996,73.6067676 706.184615,73.9427692 C706.977235,74.2787709 707.666459,74.7396894 708.252308,75.3255385 C708.838157,75.9113875 709.299075,76.5919961 709.635077,77.3673846 C709.971079,78.1427731 710.139077,78.9784571 710.139077,79.8744615 C710.139077,80.770466 709.971079,81.6104576 709.635077,82.3944615 C709.299075,83.1784655 708.838157,83.859074 708.252308,84.4363077 C707.666459,85.0135413 706.977235,85.4701522 706.184615,85.8061538 C705.391996,86.1421555 704.539081,86.3101538 703.625846,86.3101538 C702.712611,86.3101538 701.859696,86.1421555 701.067077,85.8061538 C700.274458,85.4701522 699.585234,85.0135413 698.999385,84.4363077 C698.413536,83.859074 697.952617,83.1784655 697.616615,82.3944615 C697.280614,81.6104576 697.112615,80.770466 697.112615,79.8744615 L697.112615,79.8744615 Z" id="Mendo" sketch:type="MSShapeGroup"></path>
            </g>
        </g>
    </g>
</svg>