<?xml version="1.0" encoding="UTF-8" standalone="no"?>
<svg width="161px" height="41px" viewBox="0 0 161 41" version="1.1" xmlns="http://www.w3.org/2000/svg" xmlns:xlink="http://www.w3.org/1999/xlink" xmlns:sketch="http://www.bohemiancoding.com/sketch/ns">
    <!-- Generator: Sketch 3.3 (11970) - http://www.bohemiancoding.com/sketch -->
    <title>Mendo</title>
    <desc>Created with Sketch.</desc>
    <defs></defs>
    <g id="Home" stroke="none" stroke-width="1" fill="none" fill-rule="evenodd" sketch:type="MSPage">
        <g sketch:type="MSArtboardGroup" transform="translate(-641.000000, -393.000000)" id="Mendo" fill="#FFFFFF">
            <path d="M641.07,396.184 L648.506,396.184 L660.206,424.056 L660.414,424.056 L672.01,396.184 L679.446,396.184 L679.446,433 L674.454,433 L674.454,402.736 L674.35,402.736 L661.922,433 L658.594,433 L646.166,402.736 L646.062,402.736 L646.062,433 L641.07,433 L641.07,396.184 Z M690.886,422.392 C690.886,423.466672 691.119998,424.445996 691.588,425.33 C692.056002,426.214004 692.67133,426.967997 693.434,427.592 C694.19667,428.216003 695.080662,428.701332 696.086,429.048 C697.091338,429.394668 698.131328,429.568 699.206,429.568 C700.662007,429.568 701.927328,429.230003 703.002,428.554 C704.076672,427.877997 705.064662,426.985339 705.966,425.876 L709.502,428.58 C706.901987,431.942683 703.262023,433.624 698.582,433.624 C696.640657,433.624 694.881341,433.29467 693.304,432.636 C691.726659,431.97733 690.392005,431.067339 689.3,429.906 C688.207995,428.744661 687.367336,427.375341 686.778,425.798 C686.188664,424.220659 685.894,422.513343 685.894,420.676 C685.894,418.838657 686.214663,417.131341 686.856,415.554 C687.497337,413.976659 688.381328,412.607339 689.508,411.446 C690.634672,410.284661 691.977992,409.37467 693.538,408.716 C695.098008,408.05733 696.796657,407.728 698.634,407.728 C700.818011,407.728 702.663992,408.10933 704.172,408.872 C705.680008,409.63467 706.919328,410.631327 707.89,411.862 C708.860672,413.092673 709.562664,414.479326 709.996,416.022 C710.429335,417.564674 710.646,419.133325 710.646,420.728 L710.646,422.392 L690.886,422.392 Z M705.654,418.648 C705.619333,417.607995 705.454668,416.654671 705.16,415.788 C704.865332,414.921329 704.423336,414.167337 703.834,413.526 C703.244664,412.884663 702.508004,412.382002 701.624,412.018 C700.739996,411.653998 699.708673,411.472 698.53,411.472 C697.385994,411.472 696.337338,411.688665 695.384,412.122 C694.430662,412.555336 693.62467,413.118663 692.966,413.812 C692.30733,414.505337 691.796002,415.276662 691.432,416.126 C691.067998,416.975338 690.886,417.815996 690.886,418.648 L705.654,418.648 Z M716.262,408.352 L720.942,408.352 L720.942,412.148 L721.046,412.148 C721.635336,410.83066 722.657993,409.764671 724.114,408.95 C725.570007,408.135329 727.251324,407.728 729.158,407.728 C730.336673,407.728 731.471995,407.909998 732.564,408.274 C733.656005,408.638002 734.609329,409.20133 735.424,409.964 C736.238671,410.72667 736.888664,411.705994 737.374,412.902 C737.859336,414.098006 738.102,415.510659 738.102,417.14 L738.102,433 L733.422,433 L733.422,418.44 C733.422,417.295994 733.266002,416.316671 732.954,415.502 C732.641998,414.687329 732.226003,414.028669 731.706,413.526 C731.185997,413.023331 730.588003,412.659334 729.912,412.434 C729.235997,412.208666 728.534004,412.096 727.806,412.096 C726.835328,412.096 725.934004,412.251998 725.102,412.564 C724.269996,412.876002 723.542003,413.369997 722.918,414.046 C722.293997,414.722003 721.808668,415.579995 721.462,416.62 C721.115332,417.660005 720.942,418.89066 720.942,420.312 L720.942,433 L716.262,433 L716.262,408.352 Z M769.874,433 L765.194,433 L765.194,429.464 L765.09,429.464 C764.188662,430.78134 762.949341,431.803996 761.372,432.532 C759.794659,433.260004 758.174008,433.624 756.51,433.624 C754.603324,433.624 752.878674,433.29467 751.336,432.636 C749.793326,431.97733 748.476005,431.058673 747.384,429.88 C746.291995,428.701327 745.451336,427.332008 744.862,425.772 C744.272664,424.211992 743.978,422.513343 743.978,420.676 C743.978,418.838657 744.272664,417.131341 744.862,415.554 C745.451336,413.976659 746.291995,412.607339 747.384,411.446 C748.476005,410.284661 749.793326,409.37467 751.336,408.716 C752.878674,408.05733 754.603324,407.728 756.51,407.728 C758.278009,407.728 759.941992,408.100663 761.502,408.846 C763.062008,409.591337 764.257996,410.605327 765.09,411.888 L765.194,411.888 L765.194,393.688 L769.874,393.688 L769.874,433 Z M757.082,429.256 C758.330006,429.256 759.456662,429.039335 760.462,428.606 C761.467338,428.172664 762.316663,427.583337 763.01,426.838 C763.703337,426.092663 764.240665,425.191339 764.622,424.134 C765.003335,423.076661 765.194,421.924006 765.194,420.676 C765.194,419.427994 765.003335,418.275339 764.622,417.218 C764.240665,416.160661 763.703337,415.259337 763.01,414.514 C762.316663,413.768663 761.467338,413.179335 760.462,412.746 C759.456662,412.312664 758.330006,412.096 757.082,412.096 C755.833994,412.096 754.707338,412.312664 753.702,412.746 C752.696662,413.179335 751.847337,413.768663 751.154,414.514 C750.460663,415.259337 749.923335,416.160661 749.542,417.218 C749.160665,418.275339 748.97,419.427994 748.97,420.676 C748.97,421.924006 749.160665,423.076661 749.542,424.134 C749.923335,425.191339 750.460663,426.092663 751.154,426.838 C751.847337,427.583337 752.696662,428.172664 753.702,428.606 C754.707338,429.039335 755.833994,429.256 757.082,429.256 L757.082,429.256 Z M780.742,420.676 C780.742,421.924006 780.932665,423.076661 781.314,424.134 C781.695335,425.191339 782.232663,426.092663 782.926,426.838 C783.619337,427.583337 784.468662,428.172664 785.474,428.606 C786.479338,429.039335 787.605994,429.256 788.854,429.256 C790.102006,429.256 791.228662,429.039335 792.234,428.606 C793.239338,428.172664 794.088663,427.583337 794.782,426.838 C795.475337,426.092663 796.012665,425.191339 796.394,424.134 C796.775335,423.076661 796.966,421.924006 796.966,420.676 C796.966,419.427994 796.775335,418.275339 796.394,417.218 C796.012665,416.160661 795.475337,415.259337 794.782,414.514 C794.088663,413.768663 793.239338,413.179335 792.234,412.746 C791.228662,412.312664 790.102006,412.096 788.854,412.096 C787.605994,412.096 786.479338,412.312664 785.474,412.746 C784.468662,413.179335 783.619337,413.768663 782.926,414.514 C782.232663,415.259337 781.695335,416.160661 781.314,417.218 C780.932665,418.275339 780.742,419.427994 780.742,420.676 L780.742,420.676 Z M775.75,420.676 C775.75,418.873324 776.087997,417.192008 776.764,415.632 C777.440003,414.071992 778.367327,412.702673 779.546,411.524 C780.724673,410.345327 782.111325,409.418003 783.706,408.742 C785.300675,408.065997 787.016657,407.728 788.854,407.728 C790.691343,407.728 792.407325,408.065997 794.002,408.742 C795.596675,409.418003 796.983327,410.345327 798.162,411.524 C799.340673,412.702673 800.267997,414.071992 800.944,415.632 C801.620003,417.192008 801.958,418.873324 801.958,420.676 C801.958,422.478676 801.620003,424.168659 800.944,425.746 C800.267997,427.323341 799.340673,428.692661 798.162,429.854 C796.983327,431.015339 795.596675,431.933997 794.002,432.61 C792.407325,433.286003 790.691343,433.624 788.854,433.624 C787.016657,433.624 785.300675,433.286003 783.706,432.61 C782.111325,431.933997 780.724673,431.015339 779.546,429.854 C778.367327,428.692661 777.440003,427.323341 776.764,425.746 C776.087997,424.168659 775.75,422.478676 775.75,420.676 L775.75,420.676 Z" sketch:type="MSShapeGroup"></path>
        </g>
    </g>
</svg>